<svg width="1440" height="263" xmlns="http://www.w3.org/2000/svg"><defs><linearGradient x1="110.647%" y1="45.974%" x2="13.457%" y2="70.669%" id="a"><stop stop-color="#7C85E1" stop-opacity="0" offset="0%"/><stop stop-color="#2E358E" stop-opacity=".858" offset="40.849%"/><stop stop-color="#7C85E1" offset="100%"/></linearGradient></defs><g fill="none" fill-rule="evenodd"><path d="M780.576 109.296c-.023.47-.392.618-.376 1.123-.549-.722-.674-.566-1.417-.136-.07-1.332 1.055-.206 1.793-.987zm.253 1.053c.643.15 1.674-1.835 2.367-.201-1.119.429-1.575.571-1.755 1.627-.313-.282-.505-.778-1.225-.356.194-.46.574-.737.582-1.373.273.001.162.277.031.303zm-7.882 2.832c1.17 1.504-1.2.508-1.92 1.077.063-.322.464-.356.205-.953.591.159 1.873 1.036 1.715-.124zm-74.834 56.764c1.543-2.574 4.377-2.427 6.484-3.942-.56 1.586-4.841 2.263-6.484 3.942zm119.022-72.127c.336.038.649.098.56.658 1.604.08 2.054-1.262 3.541-1.285-.097-.77-.293-1.426-.843-1.673-.48.918-1.343 2.297-2.19.983-.026.61-.159 1.099-.521 1.315-.012-.33-.49-.412-.547.002zm3.923-.357c1.212.158.83-2.374.028-1.39-.022-.425-.065-.825-.559-.702-.094 1.02.63 1.073.531 2.092zm-13.469 1.583c-.59-.416-2.341-.258-2.253.835.517-.515 2.243.21 2.253-.835zm-3.837 1.644c-1.183.125-3.633.427-2.962 1.556.895-.633 2.505-.498 2.962-1.556zm3.725 1.93c.543-1.609 2.203-1.924 3.717-2.213 1.517-.256 2.89-.523 2.88-2.171-1.275.636-1.06.537-2.28.036.265 2.152-1.01.44-1.352 1.767-.371.015-.282-.596-.59-.664-.896.571-.734 1.37-2.22.805-.235 1.697-1.918.43-3.006 1.544l.043.692c.173.008.336.034.303.332.753-.348.93-1.338 1.871-1.485.043.686.788.399.634 1.357zm-12.48 3.026c.178 1.007.818 1.284 1.187 1.978l1.353-.008c-.122-1.027.776-1.035 1.392-1.331.22.772.766 1.361.344 1.982.398-1.046 1.095-2.22.302-2.979.659.681.565-.357.982-.668-.388-.299-3.29-.003-1.257.67-1.99-.622-2.581.77-4.303.356zM631.072 183.1c.17 1.219 2.184.066 2.137-.433-1.017.164-.854.042-2.137.433zm123.216-41.249l1.39-.42c-.318-.319-3.287.385-3.312 1.3 1.022-.304 1.55-.52 1.922-.88zm-17.89 11.657c-1.913-.863-5.412 1.308-6.764 2.503 2.551-.634 4.124-1.947 6.763-2.503zm-14.123 5.785c.544-.174 2.59-.471 3.037-1.923-1.007.795-5.8 2.774-3.037 1.923zm-122.263 37.422c-2.464-.049-7.619 2.609-11.012 1.933 3.912-1.007 6.09-1.637 10.107-3.064-.254-.707-1.106.2-1.606.156 12.257-4.503 20.247-7.003 30.36-10.812.703-.506.07-1.224.262-1.544l5.097-1.934c.344 1.718 1.322 1.33 2.056 1.754.746-.025-.742-1.426.005-1.45-.3-.68-.87-.45-1.455-.173 6.327-3.247 16.003-6.997 25.103-11.009-.088-.69 1.495-.377.812-1.426 4.404.79 6.739-2.8 10.716-3.613-.921-.81.94-.2 1.284-1.62.602-.258.385.12.49.537 13.439-5.976 27.623-12.013 36.515-17.254 2.135-.148 4.257-.85 6.565-2.756 4.27-1.522 9.174-2.7 12.305-6.398.268.52.01.67-.271.803 2.092-.238 5.392-1.478 7.625-2.818.527-.214-.568-.719-.502-1.617.446-.349 1.721-.094 1.605-.85 1.437.74-1.383.482-.576 1.597 1.843.263 3.278-1.125 4.567-2.476 7.708-1.028 15.787-6.204 21.412-7.813.239-.994-1.245-.373-.479-.932.453.02.411-.368.348-.778.977.019.121 1.019.875 1.53 4.524-2.15 6.746-2.47 9.731-4.853-.342 1.356.443-.062.886.523.815-1.101 1.177-2.624 2.872-2.945.255 1.103-1.494.973-1.984 2.09 1.756-.369 3.417-.66 5.047-1.33 1.64-.626 3.248-1.625 4.927-3.47-.469-1.38-1.498.723-1.702-.76 1.622-1.51 2.939-2.311 4.781-1.762-.016.374-.488.291-.429.739-.003-.596 2.822-.88 2.568-2.713 1.389.815 2.37.085 2.434-2.011.761.35 1.844.175 2.26 1.084.264-.339-.152-.806.681-1.11-1.192-1.404-1.903-.777-4.041-.18-.42.705.23.59.201 1.682-1.175-.122-.364-1.193-1.526-1.516-2.02.619-1.923 1.681-4.043 1.904.212-2.496 2.75-2.025 4.225-2.611.336-.66 1.717-1.836 1.66-1.914.31-.76.605.283.385.976 2.456-.755 2.338-2.334 2.576-3.732.82.285 1.003.94.75 1.973 2.105-1.112 5.656-.474 5.908-4.284.296.196.342.754.87.601.34-1.728 2.222.182 2.61-2.217 1.154 1.376 2.941-.375 4.12-.909l.077 1.693c1.633-.433 2.887-1.321 4.374-1.882-.936-1.553-2.596.96-4.143.851 2.039-1.5 4.06-2.514 6.162-3.412 2.106-.884 4.275-1.75 6.69-2.629-2.933 1.996-5.403 2.629-8.457 4.168.683.858 1.388-.772 1.968.303 1.589-1.575 5.544-3.177 6.753-2.428.951-1.86 3.56-1.934 6.095-3.262.982.7-.874.757-.91 1.339.048 1.128 1.396-.99 1.118.702-1.337.057-1.282.425-1.693-.716-.061 1.508-.796.233-.908 1.673-.612.146-.53-.495-.543-1.028-.22.933-.36 2.051-1.455 1.327.039 1.968 2.642.726 2.853-.278 1.426.437 3.17.403 4.59-.509.624.087.568.89.48 1.729.23-.946 2.27 1.094 1.575 2.136 1.72 1.365 2.138.776 3.52 1.924-.921.85.206.434-.69 1.654.155.976 1.008 1.206 1.514 1.796.075 1.499-1 1.328-1.289 2.295 1.167.109-.51 1.51 1.271 1.103-.483.807-1.352 1.242-.147 1.69.088 1.28-1.084.671-1.21 1.623-.06 1.192.63 1.558.564 2.751.038.822-.54.704-.403 1.674a46.055 46.055 0 0 1-7.982 5.089c-2.81 1.537-5.726 2.75-8.667 3.75-9.171 3.16-18.59 7.029-27.964 10.43-2.835.978-5.887 2.136-8.959 3.102-3.072 1.1-6.167 2.068-9.093 3.06-10.039 3.343-17.67 6.436-25.725 9.774a1940.352 1940.352 0 0 0-28.111 11.955c-9.308 4.032-20.202 10.027-30.22 13.449-4.584 1.558.512-.87 1.396-1.288 9.655-4.555 17.871-7.776 27.317-12.7-1.304-.01-3.544.87-4.892 1.81 7.411-5.116 17.663-8.442 25.937-11.855-.031 1.032-.773.53-1.667 1.231 3.512-.08 5.54-2.445 9.49-3.259-1.459-1.158-2.479.926-4.777 1.088-.38.088-.846.43-1.037-.036l.937-.288c7.372-4.092 15.653-6.438 22.385-9.972-5.238 1.416-11.465 2.655-16.995 6.59.061-.33.119-.662-.185-.65-5.257 2.038-10.278 3.928-14.885 6.055 5.959-3.643 12.613-5.915 19.392-9.113-3.671.249-7.01 2.684-11.502 3.745-.553.002-.31.6-.177 1.115-3.364.039-6.353 1.558-9.29 2.63-22.319 8.314-41.08 18.03-66.82 28.949-1.065.455-2.15.724-3.59 1.449-1.12.569-2.669.328-3.847.819-2.998 1.254-5.63 4.283-8.803 3.141-.79.528-2.953 1.065-2.058.447 3.493-2.447 7.337-3.097 10.244-4.436 12.2-5.613 24.25-10.05 34.781-15.134-9.827 2.46-18.908 8.525-27.61 11.515-4.039 1.381-8.81 3.66-12.597 4.69-17.236 4.739-33.48 14.595-52.123 17.028.733-1.16 1.568-1.282 1.966-1.695zm195.922-92.995c-.424.173-.476-1.679.215-1.292-.04.262-.236.352-.227.666 1.112.4.302-1.297 1.195-1.142-.584 1.358.633-.15 1.464.064-.913.976-1.873 1.255-2.647 1.704zM779 112.682c-.533-.485-1.033.41-2.08.265.542-1.368 1.648-1.145 1.932-2.28.857.375.26 1.642.148 2.015zm-4.133 1.07c-.205.088-.274-.096-.334-.292-.294.55-.038 2.263-.971 1.472-.18-.841 1.014-.488.38-1.731.489-.18.818-.041.925.55zm.743-.376c.638.37-.734 2.154-1.257 1.543-.201-1.06.987-.893 1.257-1.543zm-3.957 2.071l-.2-1.033c.489-.01 1.273-.596 1.2.491-.486.043-.48.526-1 .542zm-6.22 1.466c-.295-.036-.343-.617-.677-.569.127-.732 1.468-.454 1.515-1.258.87.634-.301 1.684-1.01 1.176l.173.65zm1.557.005c.548.175 2.68-.367 2.579-1.71.589.725.71.558 1.47.075.387.952-.419.84-.29 1.564-1.632-.812-2.926 2.257-3.76.07zm-16.707 5.847c-.876.56-.624-1.418-.952-2.091.747-.201 1.159 1.571.952 2.091zm-9.14 4.52c.219-.627.794-.993 1.6-1.186.064.877-1.195 1.459-1.6 1.187zm18.696-4.67c.05-.3.095-.604-.072-1.079.968 1.44 2.931-2.62 3.273.598-1.457-1.574-1.976 1.627-3.201.48zm-21.412 6.175c.264-.785 1.516-1.12 2.221-2.095-.196.515-.52.933-.345 1.72-1.04-.133-1.097.943-1.876.375zm18.579-4.377c-.254-.13-.507-.255-.861-.156-.417-.881.346-.806.183-1.486.529.204.963 1.036.678 1.642zm1.487-1.432c.218.728-.882.373-1.213.65-.047-.678.348-.991.105-1.83.889.032.762 1.016 1.108 1.18zm-36.12 12.672c-.101-1.277 1.979-1.05 2.57-1.84 0 1.794-1.397.84-2.57 1.84zm1.34 4.686c.064-.324-.044-.767-.288-1.3l1.393-.37c.434 1.567-.758.643-1.106 1.67zM616.278 187.84c1.855-1.988 6.213-2.262 10.732-4.563-1.93 1.576-7.391 3.086-10.732 4.563zm13.618 3.513c2.284-1.813 3.403-.644 0 0zm7.527-2.96c1.988-1.807 3.454-.83 0 0zm84.627-32.671c.383 1.426-1.998.97-2.775 1.607-1.344-.32 2.594-.797 2.775-1.607zm-12.947 8.255c.097-1.107 2.69-.575 2.789-1.682.994.813-2.473 1.709-2.79 1.682zm-.81 1.24c-.183.139-.277-.04-.365-.233-3.29 2.03-.702-1.752.365.233zm-21.38 8.94c1.923-1.855 3.377-.886 0 0zm4.009-1.371c1.657-.928 4.636-3.55 6.763-2.503-2.294.717-5.198 2.091-6.763 2.503zm-33.925 13.816c-1.934 1.133 1.148-.02 2.505-.54 1.807-.686 3.933-1.422 4.163-2.354-1.888.632-4.826 1.86-6.668 2.894z" fill="#212880"/><path d="M546.74 969.109c-3.009 1.302-6.413 2.465-10.073 3.44-3.672.94-7.593 1.727-11.614 2.381-8.028 1.373-16.523 1.859-24.179 2.163-7.805.176-14.73.03-19.896-.363-.943-4.169 1.549-3.984 3.668-4.275 2.092-.314 3.788-1.1 1.348-7.126 4.094 2.622 4.572 13.897 11.912 9.043-.105-7.651-3.952-6.267-7.275-6.126 3.23-6.818 7.6-4.163 12.058-1.69 4.098 2.294 8.39 4.487 11.768-.67.227-.466.504-.971.89-1.552-.288.587-.587 1.09-.89 1.553-2.25 4.623 2.96 3.897 11.3 1.497 9.208-2.547 22.034-7.154 33.016-8.217-1.618 4.06-6.013 7.347-12.033 9.942m-250.29-102.43c-1.494 1.548-6.879 1.422-11.168-4.947-2.485 2.167-5.64 2.337-9.243 1.125 1.125-2.567 2.989-2.729 3.856-6.044-1.605-1.073-2.298.76-2.965 2.752-5.188-10.57 10.537-5.67 8.352 2.167 10.481.26 12.666 3.394 11.168 4.948m-30.648 8.39c3.936-6.496 16.499.643 18 4.7-6.552 4.738-8.88-1.736-18-4.7M1608.34 453.59c-1.178-10.732-2.973-20.753-5.357-31.02a196.423 196.423 0 0 0-1.896-7.522 280.206 280.206 0 0 0-2.114-7.41c-1.482-4.892-3.12-10.001-4.891-14.693a284.408 284.408 0 0 0-5.766-14.32c-2.072-4.831-4.286-9.295-6.655-13.953-4.732-9.33-10.085-18.146-16.063-27.032-12.013-17.46-26.528-34.243-44.402-49.856-5.398-4.719-11.115-9.112-16.922-13.27l-2.188-1.546-2.003-1.351-3.972-2.58a228.144 228.144 0 0 0-8.078-4.897c-10.784-6.154-21.832-11.13-32.738-14.926-21.872-7.638-43.264-10.799-63.047-11.175-19.822-.377-38.094 1.992-54.703 5.399-16.626 3.415-31.626 7.864-45.253 11.856-3.451 1.066-6.936 2.248-10.27 3.586-3.239 1.37-6.481 2.837-9.622 4.442-6.15 3.283-12.166 6.968-18.024 10.926-11.7 7.807-22.848 17.192-33.25 26.493-20.87 18.748-38.824 38.238-54.736 50.117-1.794 1.325-3.792-5.376-7.332-3.533-8.995 4.884-18.553 16.248-27.302 27.962-8.798 11.91-16.781 23.858-23.63 29.865-8.036-1.356-12.049 7.577-15.768 14.463-3.768 6.837-7.215 11.862-15.033 2.658-3.084 6.081-6.35 11.652-9.762 16.77-3.409 5.153-6.945 10.026-10.599 14.418-3.65 4.432-7.42 8.393-11.239 12.172a158.768 158.768 0 0 1-11.616 10.597 169.545 169.545 0 0 1-5.907 4.662c-1.971 1.503-3.925 3.061-5.89 4.501a236.58 236.58 0 0 1-11.729 8.13c-3.895 2.476-7.652 5.156-11.37 7.523-3.687 2.382-7.297 4.718-10.797 6.98.622 8.801 8.017 15.184 4.996 16.652-4.42 3.394-7.079-10.671-11.607-7.246.464 8.162 7.584 11.308 4.217 13.26-1.929-3.708-3.897-7.027-6.019-9.038 1.3 5.883 4.836 7.825 3.22 9.934-1.409.433-.787 3.215-1.705 4.19-2.606-1.404-4.411-12.629-7.217-12.3 2.32 7.22.532 6.58-1.397 6.049-1.92-.517-4.021-1.002-2.194 6.268 2.309-1.036 4.406 1.236 6.38 5.056-9.106 2.772-18.231 11.058-26.378 19.288-2.066 2.012-4.099 3.974-6.111 5.785-1.99 1.858-3.91 3.665-5.85 5.168-3.867 3.033-7.703 5.072-11.658 5.368.682 7.988-1.624 10.49-4.538 12.476-1.452.994-3.05 1.86-4.458 3.211-1.405 1.364-2.611 3.305-3.272 6.28-5.534-12.87-8.2-7.14-8.244-3.456 1.7-.472 3.43-.672 5.8 4.786-.72 7.001-4.75 7.81-9.307 7.647-4.543-.227-9.602-1.664-12.018.405-2.677 2.316.86 18.489-3.805 18.537-5.483.05-8.877 3.431-11.726 7.618-2.845 4.177-5.212 9.438-8.816 13.637-5.02 5.82-10.745 11.667-16.818 17.206-6.183 5.693-12.69 11.121-19.655 16.629-13.816 10.895-28.914 21.568-44.05 32.072l-11.269 7.84-11.07 7.79c-7.42 5.158-14.359 10.336-21.153 15.466-3.374 2.569-6.515 5.184-9.668 7.76a174.155 174.155 0 0 0-8.962 7.799c-5.557 5.3-10.707 10.493-14.756 16.018-5.3-1.977-10.668-1.455-15.875.55-5.212 1.994-10.375 5.259-15.153 8.922-4.811 3.575-9.313 7.39-13.135 10.395-3.847 2.944-7.044 5.002-9.175 5.097-6.244.26-3.779 8.593-13.999 13.179-17.831 7.91-30.953 15.229-46.05-1.95-3.338 5.557-8.009 9.032-13.245 11.194-5.222 2.22-10.962 3.26-16.504 4.029-2.765.403-5.475.772-8.043 1.236-2.576.43-5.02.933-7.24 1.679-4.443 1.47-7.994 3.918-10.105 8.21 3.55 1.18 7.61-.045 10.344 4.613a382.323 382.323 0 0 1-12.26 2.948l-3.134-13.54c-4.915 1.888-9.839 2.962-14.707 3.569-4.867.625-9.624 1.025-14.282 1.43-4.65.43-9.14 1.137-13.492 2.447-4.355 1.301-8.542 3.337-12.588 6.635 2.026.518 5.1 4.967 2.806 6.579-5.508-.231-13.442 5.824-15.233-4.825 4.007-4.388 9.974 9.261 10.66-1.497-4.356-2.134-7.902-6.228-13.344-5.199.354 5.199 2.287 12.646-.04 14.025-11.656-2.295-22.184-.959-31.762 1.371-4.791 1.15-9.386 2.467-13.672 3.74-4.327 1.2-8.4 2.268-12.136 2.89.533-2.151 4.276-13.535-.387-13.894-9.041 12.174-23.294 8.974-36.754 4.866-13.568-4.048-26.115-8.606-35.679 2.202-.36-9.1-4.528-11.848-9.417-11.126-4.874.751-10.529 5.274-13.455 11.176 1.384-7.482-.052-11.687-3.004-14.063-2.954-2.37-7.47-2.906-12.4-3.298-4.414.035.908 9.88-6.404 9.218-2.601-2.534-5.211-4.77-7.86-6.698-2.647-1.926-5.33-3.507-8.078-4.911-5.492-2.99-11.324-4.921-17.402-7.048-6.064-2.145-12.56-4.079-19.232-7.029-6.756-2.77-13.67-6.572-20.766-11.667-6.126 5.884-.773 14.077-6.102 12.487-6.52 1.07-12.775-2.845-17.858-7.697-5.057-4.943-9.176-10.434-12.14-12.764 2.947 2.433-4.006 4.786-1.787-1.118 5.041-5.145 6.499-1.856 8.61 1.442 2.062 3.323 4.698 6.87 11.153 2.117-2.649-1.734-7.277-7.353-12.036-11.867-4.756-4.553-9.955-7.673-14.569-4.3-2.946 5.016.587 4.222 3.472 3.786 2.875-.413 5.102-.378-.209 6.571-3.043-.53-5.338-1.32-7.258-2.42-1.91-1.12-3.493-2.49-5.202-4.096-1.709-1.608-3.544-3.451-5.963-5.535-2.392-2.125-5.305-4.573-9.288-7.283 3.39-3.326 6.396-3.501 10.077-9.823-5.517 3.777-10.279 4.025-15.504 3.46-5.25-.551-11.188-1.573-19.434-.403 2.039 4.092 4.473 7.712 7.039 11.174a93.715 93.715 0 0 0 4.012 4.986 109.926 109.926 0 0 0 4.367 4.533c2.998 2.913 6.067 5.748 9.328 8.346 3.269 2.59 6.615 5.103 9.998 7.63 13.738 9.932 28.057 19.487 42.502 35.13-19.83-10.184-34.633-18.875-47.687-28.187a253.11 253.11 0 0 1-9.39-7.272c-3.064-2.457-5.914-5.19-8.798-7.947-5.79-5.476-11.123-11.846-16.513-19.034-2.925 2.874-6.123 7.767-8.509 6.426 3.746-6.554 1.435-11.643-2.782-15.668-4.206-4.03-10.198-7.29-14.07-9.552 9.04 10.753-1.359 1.218-6.564 3.326 2.899.983 3.627 6.385 3.463 10.836-.16 4.103-1.132 7.349-2.189 5.306 2.22 5.615 7.806 9.814 13.108 13.865 5.523 4.196 11.013 7.866 12.656 12.964.803 2.35-7.227 6.585-4.634 9.668-.209-.281 6.574-8.122 8.322-6.716 4.591 3.705 2.612 13.486 7.092 18.39 4.466 4.657 14.89 5.664 19.846 9.374 24.149 18.161 51.39 37.904 82.544 54.38 31.296 16.772 65.198 29.687 97.023 36.517 21.37 4.653 42.569 6.952 63.018 7.957 20.471 1.006 40.212.736 59.162.26 18.959-.484 37.153-1.147 54.755-1.077 17.62.167 35.068.831 52.692 3.128a232.04 232.04 0 0 0-21.984 1.64c-7.527.757-15.168 2.034-23.031 3.183-15.562 2.513-32.277 5.452-49.903 7.686-17.62 2.219-36.228 3.659-55.26 3.004-19.004-.646-38.447-3.411-57.074-9.369-4.667 11.462-9.846-2.968-13.122 9.197 19.737 2.074 44.246 3.823 67.555 5.09 23.366 1.344 45.576 2.353 62.239 4.881 2.493 9.233-10.442-1.44-8.047 7.77 5.283 2.068 16.358-7.95 16.076 5.387-36.53 2.137-79.09.947-123.188-4.475-22.023-2.69-44.385-6.428-66.273-10.975-5.427-1.044-10.936-2.363-16.311-3.537-5.37-1.145-10.753-2.48-16.052-3.764l-7.891-1.897c-2.646-.69-5.269-1.377-7.871-2.056-5.196-1.377-10.36-2.634-15.348-3.992 6.785 5.054 14.08 9.389 21.733 13.364 7.564 3.744 15.662 7.323 24.116 10.357 8.542 3.212 17.448 5.98 27.08 8.93 4.769 1.367 9.695 2.78 14.802 4.246 5.146 1.494 10.307 2.808 15.791 4.34 23.342 6.358 48.34 10.114 72.927 11.834 24.57 1.706 48.726 1.432 71.304.344 2.821-.14 5.635-.281 8.435-.422l8.213-.522c5.496-.327 10.79-.729 16.017-1.121 10.338-.811 20.403-1.601 30.062-2.356 19.323-1.425 37.084-2.778 52.665-2.465 4.363-5.057 18.89-10.357 34.01-14.088 7.58-1.82 15.291-3.34 22.093-3.892 6.772-.64 12.587-.46 16.307 1.047 22.012-7.499 45.034-16.672 68.11-26.933 23.085-10.25 46.22-21.584 68.702-33.155 11.385-5.793 22.008-11.558 32.704-17.05 10.066-5.405 20.382-10.644 29.513-15.274 2.349-1.157 4.68-2.303 6.99-3.439l6.76-3.237c4.37-2.067 8.7-4.029 12.986-5.867 2.103-.879 4.182-1.745 6.234-2.6 2.014-.816 4.02-1.6 6.013-2.348 3.953-1.483 8.012-2.904 11.74-4.042-.619 1.38-2.81 2-.983 4.845 6.093-2.2 12.136-4.905 18.26-8.232 5.844-3.17 11.461-6.805 16.624-10.845 4.845-3.83 9.434-8.217 12.978-12.718 3.431-4.416 6.187-9.224 7.884-14.27-6.567-5.992-8.944 8.614-15.65 2.196 2.233-3.024 4.594-6.41 7.871-9.143 1.686-1.406 3.402-2.48 5.492-3.301 2.083-.816 4.488-1.336 7.305-1.429 2.392 3.748 1.236 4.954 4.641 9.416l3.933-2.872c1.233-.873 2.465-1.741 3.692-2.61l7.345-5.08 6.872-4.513c2.272-1.48 4.59-3.004 6.63-4.226l6.287-3.89c1.075-.686 2.033-1.234 2.99-1.793l2.88-1.7 2.863-1.72c.96-.594 1.903-1.168 2.748-1.627 1.74-.99 3.47-2.002 5.185-3.046 1.774-1.125 3.287-1.945 4.83-2.873 1.539-.914 3.072-1.91 4.57-2.88 2.925-1.676 5.759-3.577 8.57-5.692 2.993-1.888 5.898-4.066 8.815-6.49 3.087-2.2 6.08-4.783 9.162-7.601 8.899-7.727 18.16-16.832 28.173-27.294 2.54-2.545 5.14-5.14 7.738-7.92l3.942-4.223 4.09-4.19 17.106-18.124c11.944-12.47 24.837-26.337 39-40.634 7.039-7.399 14.434-14.53 22.07-22.34l11.718-11.492c3.98-3.924 8.037-7.945 12.173-11.826 3.06-2.919 6.23-5.885 9.43-8.82l4.808-4.367 4.772-4.106c6.287-5.367 12.412-10.4 17.227-14.308 7.976-6.452 14.926-9.979 21.703-13.164 6.781-3.167 13.35-6.028 21.106-10.927 9.903-6.218 21.255-15.466 35.114-23.205 6.864-3.813 14.396-7.31 22.273-9.626 4.023-1.24 7.905-2.07 12.088-2.726 4.03-.474 8.298-.801 12.402-.52 7.11.3 14.932 2.469 22.995 6.044 8.072 3.565 16.302 8.626 24.093 14.75 7.817 6.095 15.312 13.16 22.276 20.312 1.772 1.764 3.395 3.6 5.119 5.34 1.694 1.76 3.457 3.443 5.044 5.159a118.47 118.47 0 0 0 4.955 4.86 90.273 90.273 0 0 0 2.525 2.235 77.33 77.33 0 0 0 2.446 2.123c3.653 3.011 7.316 5.782 10.973 8.258 3.54 2.506 7.11 4.72 10.715 6.59 7.21 3.746 14.57 6.108 22.08 6.859 7.509.759 15.17-.098 22.838-2.569 7.667-2.46 15.332-6.54 22.744-11.926 7.368-5.348 14.266-11.889 20.795-19.136 3.29-3.651 6.323-7.306 9.268-11.043 2.945-3.735 5.77-7.52 8.488-11.234 2.755-3.779 5.372-7.37 7.777-10.667 2.475-3.352 4.872-6.513 7.22-9.346 4.7-5.665 9.22-10.031 13.858-11.952 2.98-22.327 3.103-44.66.723-65.52" fill="url(#a)" transform="rotate(20 1832.187 67.867)"/><path d="M1133 100.818c.023.05-.41.217-.453.175-.431-.431-.62-.954-.95-1.421-.328-.468-.808-.875-1.058-1.372-.25-.497-.351-1.052-.537-1.574-.186-.522-.279-1.08-.414-1.623-.132-.544-.311-1.07-.416-1.627-.12-.621-.053-1.319-.205-1.926-.15-.61-.26-1.237-.511-1.805-.252-.567-1.173-.84-1.592-1.333-.415-.489-.76-1.01-1.412-1.395-.65-.383-1.506-.673-1.974-1.135-.468-.461-.765-1.004-1.097-1.528-.328-.524-.517-1.116-.748-1.684-.235-.568.038-1.377-.145-1.97-.179-.588-.617-1.05-.755-1.658-.138-.608-.587-1.065-.704-1.684-.116-.618-.065-1.321-.178-1.945-.116-.622.023-1.373-.106-1.99-.13-.621-.49-1.122-.658-1.722-.168-.6.336-1.55.105-2.124-.231-.572-1.22-.741-1.53-1.269-.306-.528-.25-1.253-.652-1.732-.11-.13.698-.575.826-.456.426.397 1.312.543 1.787.918.477.373 1.347.532 1.839.903.49.372.095 1.218.571 1.596.478.376 1.795.315 2.238.719.444.402 0 1.264.372 1.702.412.488 1.544.613 1.896 1.136.355.52.413 1.189.713 1.736.297.55.095 1.34.341 1.912.246.571.847.976 1.04 1.575.195.61.132 1.339.378 1.923.247.584.346 1.236.593 1.82.247.583.965.955 1.164 1.56.197.61.352 1.233.443 1.884.08.573.592.964.638 1.55.046.59-.832 1.562-.808 2.153.025.591.773.884.793 1.478.022.59.157 1.136.183 1.723.023.59.234 1.101.273 1.683.04.58-.462 1.373-.39 1.937.07.565-.403 1.34-.29 1.886.112.545.377 1.034.54 1.56.166.524.612.944.85 1.444z" fill-opacity=".56" fill="#535FD7"/><path d="M1140.232 22.932c.04.024-.226.407-.278.4-.52-.063-.893-.34-1.354-.493-.463-.151-1.014-.186-1.418-.424-.404-.238-.718-.594-1.074-.897-.354-.302-.646-.682-.965-1.026-.322-.341-.653-.671-.943-1.048-.324-.423-.518-.995-.843-1.403-.33-.407-.633-.84-1.026-1.17-.39-.33-1.264-.114-1.783-.318-.514-.198-.958-.477-1.648-.502-.687-.023-1.527.097-2.073-.099-.544-.198-.976-.523-1.407-.843-.434-.32-.758-.75-1.116-1.145-.351-.402-.29-1.196-.592-1.635-.302-.428-.791-.688-1.044-1.162-.252-.475-.762-.72-.978-1.223-.218-.503-.297-1.12-.502-1.625-.2-.508-.18-1.197-.39-1.689-.208-.492-.594-.839-.823-1.31-.233-.474.148-1.42-.113-1.857-.26-.436-1.22-.34-1.542-.739-.326-.395-.317-1.036-.727-1.365-.112-.09.634-.637.762-.562.427.252 1.269.186 1.731.396.46.214 1.293.133 1.773.32.483.18.166 1.003.647 1.189.48.186 1.69-.238 2.127-.036.433.204.127 1.034.513 1.283.433.275 1.466.018 1.853.313.388.3.52.821.867 1.158.348.33.288 1.038.597 1.411.307.376.924.457 1.196.862.277.413.36 1.018.7 1.378.337.357.549.845.9 1.193.35.351 1.055.33 1.364.716.314.383.605.792.846 1.259.211.413.756.463.955.891.2.425-.272 1.615-.068 2.056.204.442.92.29 1.12.735.2.449.5.78.715 1.216.218.434.559.72.801 1.129.24.412.12 1.284.39 1.675.269.387.195 1.227.504 1.576.308.348.715.565 1.07.852.352.29.88.336 1.276.563z" fill="#93F4FE"/><path d="M1237.812 23.001c-.66.283-1.242.773-1.927.985-.687.213-1.34.52-2.046.675-.707.155-1.63-.27-2.353-.16-.723.11-1.653-.351-2.388-.275-.735.076-1.41.317-2.152.373-.741.055-1.442.226-2.185.273-.746.046-1.228.823-1.972.874-.743.05-1.814-.817-2.55-.751-.736.066-1.305.602-2.031.696-.823.108-1.623.281-2.41.493-.786.213-1.38.95-2.15 1.212-.769.262-1.596.361-2.366.619-.77.256-1.656.19-2.446.386-.779.192-1.404.81-2.162 1.053-.76.244-1.683.027-2.423.323s-1.57.339-2.293.69c-.72.35-1.15 1.502-1.852 1.91-.632.368-1.571-.112-2.178.325-.605.436-.878 1.789-1.472 2.267-.593.476-1.523.028-2.113.514-.588.486-1.032 1.377-1.63 1.843-.597.467-1.039 1.37-1.655 1.787-.186.126.117.983.31.878.712-.39 1.591-.296 2.337-.585.745-.29 1.24-1.305 2.012-1.517.772-.212 1.81.343 2.603.188.792-.156 1.518-.505 2.323-.624.806-.12 1.707.04 2.518-.066.81-.105 1.678-.046 2.488-.158.809-.113 1.497-.575 2.296-.716.799-.141 1.49-.59 2.272-.778.791-.193 1.753.083 2.529-.166.773-.247 1.565-.452 2.303-.798.738-.349 1.488-.674 2.172-1.165.684-.492 1.22-1.379 1.83-2.06.613-.683 1.336-1.05 2.03-1.496.697-.448 1.202-1.404 1.96-1.683.76-.28 1.568-.425 2.363-.607.793-.183 1.664-.156 2.471-.313.722-.142 1.42-.35 2.127-.525.708-.174 1.433-.308 2.124-.532.689-.225 1.408-.375 2.074-.668.664-.29 1.24-.813 1.875-1.188.63-.375 1.318-.612 1.913-1.087.059-.048-.11-.474-.176-.446" fill="#61EFFD"/><path d="M1143.62 150.985c-.052.095-.645-.278-.62-.392.26-1.122.852-2.034 1.251-3.068.395-1.042.612-2.202 1.144-3.157.532-.953 1.248-1.783 1.879-2.667.634-.885 1.39-1.681 2.09-2.517.693-.84 1.375-1.688 2.124-2.484.847-.888 1.929-1.591 2.752-2.48.823-.894 1.687-1.754 2.387-2.735.705-.975.53-2.62 1.023-3.774.489-1.146 1.106-2.193 1.312-3.58.203-1.382.168-2.974.648-4.16.48-1.185 1.167-2.22 1.849-3.246.678-1.033 1.54-1.918 2.342-2.845.818-.918 2.28-1.276 3.157-2.128.862-.847 1.44-1.947 2.38-2.725.938-.776 1.49-1.905 2.481-2.632.987-.73 2.169-1.271 3.166-1.983 1.002-.706 2.312-1.11 3.29-1.829.978-.716 1.712-1.672 2.656-2.418.947-.75 2.72-.668 3.61-1.451.894-.788.851-2.52 1.672-3.39.818-.87 2.068-1.292 2.771-2.278.191-.27 1.165.733.997 1.023-.553.968-.545 2.492-1.032 3.507-.495 1.012-.472 2.524-.921 3.565-.444 1.043-2 1.012-2.447 2.057-.448 1.039.15 3.062-.334 4.047-.49.979-2.047.963-2.609 1.881-.622 1.02-.346 2.858-1.005 3.822-.667.963-1.713 1.583-2.44 2.492-.721.911-2.068 1.268-2.857 2.127-.79.854-1.094 2.132-1.934 2.944-.856.823-2.027 1.384-2.79 2.294-.762.908-1.741 1.641-2.484 2.57-.748.925-.892 2.338-1.699 3.208-.8.88-1.643 1.727-2.576 2.501-.827.682-1.067 1.828-1.915 2.495-.843.669-2.905.401-3.767 1.074-.864.672-.783 2.058-1.652 2.726-.874.665-1.557 1.473-2.408 2.16-.848.692-1.46 1.554-2.266 2.281-.81.722-2.34.939-3.112 1.7-.768.761-2.24 1.043-2.945 1.86-.701.816-1.202 1.773-1.809 2.655-.612.88-.843 2.009-1.359 2.95z" fill="#535FD7"/></g></svg>