<svg width="1440" height="263" xmlns="http://www.w3.org/2000/svg"><defs><linearGradient x1="50%" y1="0%" x2="50%" y2="97.202%" id="a"><stop stop-color="#FFBC48" offset="0%"/><stop stop-color="#FFBC48" stop-opacity="0" offset="100%"/></linearGradient><linearGradient x1="110.424%" y1="9.087%" x2="2.797%" y2="52.227%" id="b"><stop stop-color="#61EFFD" stop-opacity="0" offset="0%"/><stop stop-color="#61EFFD" offset="51.929%"/><stop stop-color="#535FD7" stop-opacity=".24" offset="100%"/></linearGradient></defs><g fill="none" fill-rule="evenodd"><path d="M873.859 449.516c.258.394.046.73.356 1.13-.868-.262-.878-.062-1.226.722-.84-1.036.732-.786.87-1.852zm.824.703c.608-.257.275-2.469 1.797-1.555-.654 1.005-.939 1.388-.464 2.349-.42-.045-.866-.333-1.2.431-.114-.485.03-.933-.336-1.453.22-.159.293.13.203.228zm-4.713 6.924c1.832.528-.672 1.117-.92 2-.138-.298.166-.561-.394-.891.572-.22 2.124-.263 1.314-1.11zm-27.177 89.909c-.264-2.99 2.115-4.536 2.93-7 .478 1.611-2.587 4.676-2.93 7zM896.69 418.74c.294-.167.583-.303.84.202 1.344-.878.92-2.227 2.11-3.12-.531-.566-1.076-.982-1.666-.858.15 1.025.264 2.647-1.194 2.083.338.509.518.982.351 1.37-.202-.26-.638-.046-.441.323zm2.964-2.595c1.073-.584-.724-2.408-.794-1.14-.268-.332-.538-.63-.865-.24.523.88 1.14.498 1.659 1.38zm-9.966 9.197c-.722.01-2.046 1.168-1.332 2 .116-.72 1.938-1.149 1.332-2zm-2.138 3.586c-.884.796-2.688 2.48-1.482 3 .352-1.038 1.734-1.875 1.482-3zm4.148-.628c-.506-1.621.652-2.851 1.707-3.976 1.076-1.098 2.03-2.121 1.052-3.448-.656 1.264-.54 1.057-1.821 1.368 1.478 1.586-.56.95-.056 2.224-.291.231-.579-.315-.868-.189-.389.988.212 1.54-1.323 1.956.807 1.51-1.298 1.475-1.524 3.015l.442.535c.145-.095.291-.17.44.09.404-.723-.034-1.628.64-2.3.438.53.873-.14 1.31.725zm-8.318 9.784c.736.71 1.416.557 2.124.902l1.09-.802c-.703-.759.018-1.293.343-1.895.631.496 1.42.651 1.443 1.401-.293-1.08-.418-2.439-1.506-2.587.933.164.247-.621.401-1.117-.49-.014-2.663 1.93-.623 1.28-1.975.666-1.636 2.14-3.272 2.818zm-87.09 159.014c.853.886 1.805-1.23 1.473-1.606-.726.73-.666.536-1.474 1.606zm75.438-105.795l.876-1.157c-.444-.07-2.432 2.244-1.914 2.998.648-.847.948-1.33 1.038-1.841zm-7.623 19.947c-2.054.426-3.609 4.238-4 6 1.692-2.013 2.192-4 4-6zm-8.024 12.98c.338-.46 1.818-1.903 1.326-3.34-.347 1.234-3.061 5.653-1.326 3.34zm-76.917 102.14c-2.022 1.408-4.63 6.589-7.773 8.036 2.573-3.113 3.964-4.903 6.376-8.42-.621-.422-.778.813-1.208 1.07 7.27-10.846 12.264-17.565 18.206-26.591.272-.822-.662-1.031-.695-1.403l2.987-4.561c1.288 1.188 1.852.3 2.695.21.588-.458-1.44-.717-.849-1.176-.642-.373-.968.15-1.279.716 3.21-6.345 8.834-15.067 13.838-23.661-.476-.508.988-1.185-.181-1.632 4.028-1.949 3.806-6.225 6.545-9.221-1.22-.114.643-.714.087-2.065.336-.563.382-.13.712.145 7.36-12.733 15.287-25.955 19.4-35.422 1.64-1.373 2.944-3.189 3.69-6.088 2.56-3.74 5.836-7.576 6.195-12.408.523.263.401.536.253.809 1.553-1.423 3.494-4.366 4.512-6.762.301-.484-.881-.247-1.356-1.014.156-.544 1.337-1.087.799-1.631 1.597-.246-.836 1.204.472 1.631 1.646-.87 1.991-2.837 2.24-4.687 5.631-5.362 9.125-14.299 12.73-18.907-.39-.944-1.226.43-.935-.472.378-.25.116-.54-.175-.834.8-.56.696.753 1.607.724 2.396-4.399 4.005-5.964 5.02-9.647.52 1.298.322-.31 1.024-.097.011-1.37-.59-2.815.592-4.071.855.743-.637 1.666-.376 2.858 1.204-1.332 2.377-2.543 3.3-4.043.96-1.47 1.673-3.224 1.947-5.703-1.19-.842-.787 1.465-1.823.385.425-2.175 1.019-3.597 2.832-4.236.207.312-.224.523.087.85-.353-.48 1.765-2.37.482-3.704 1.603-.157 1.968-1.324.787-3.058.822-.164 1.596-.942 2.466-.45.015-.43-.596-.564-.1-1.3-1.79-.435-1.997.49-3.376 2.23.075.817.532.343 1.151 1.242-1.022.593-.995-.75-2.126-.328-1.27 1.687-.567 2.49-2.15 3.916-1.297-2.144 1.033-3.255 1.882-4.596-.116-.731.31-2.494.218-2.523-.195-.798.656-.128.886.563 1.543-2.055.519-3.263-.11-4.534.831-.252 1.364.17 1.767 1.155 1.05-2.136 4.296-3.708 2.26-6.938.356-.015.72.409 1.058-.025-.74-1.598 1.904-1.159.808-3.328 1.742.435 2.16-2.032 2.8-3.157l1.057 1.324c1.067-1.31 1.559-2.765 2.432-4.093-1.67-.706-1.535 2.303-2.85 3.124.767-2.412 1.805-4.42 2.978-6.383a146.838 146.838 0 0 1 3.868-6.059c-1.2 3.338-2.826 5.303-4.393 8.343 1.057.292.67-1.44 1.771-.912.359-2.208 2.618-5.828 4.036-5.933-.324-2.065 1.744-3.657 3.013-6.222 1.206-.011-.262 1.127.05 1.618.703.885.548-1.621 1.318-.089-1.047.832-.787 1.097-1.79.416.837 1.256-.508.656.249 1.887-.41.478-.72-.089-1.044-.513.37.885.914 1.872-.397 1.93 1.188 1.57 2.563-.966 2.145-1.903 1.41-.483 2.801-1.536 3.414-3.11.556-.296.982.388 1.405 1.117-.37-.9 2.479-.449 2.53.803 2.193.093 2.185-.629 3.977-.513-.245 1.23.423.23.415 1.744.698.699 1.524.383 2.28.563.942 1.169-.029 1.662.307 2.615 1.007-.598.474 1.52 1.676.145.083.936-.364 1.8.874 1.453.824.985-.482 1.18-.025 2.024.652 1 1.426.89 2.074 1.895.513.642-.023.886.658 1.59a46.055 46.055 0 0 1-3.467 8.81c-1.37 2.895-3.015 5.59-4.807 8.127-5.562 7.948-10.908 16.614-16.493 24.875-1.719 2.458-3.507 5.189-5.425 7.776-1.838 2.696-3.773 5.298-5.558 7.82-6.156 8.606-10.512 15.594-15.067 23.029a1940.352 1940.352 0 0 0-15.715 26.195c-5.16 8.733-10.45 19.986-16.543 28.642-2.793 3.956-.098-1.004.373-1.861 5.133-9.36 9.887-16.796 14.634-26.33-1.06.756-2.355 2.786-2.893 4.338 2.988-8.495 9.327-17.211 14.015-24.836.58.853-.314.882-.625 1.976 2.794-2.129 3.044-5.235 5.763-8.215-1.862-.08-1.463 2.206-3.226 3.688-.257.294-.432.846-.86.58l.588-.783c3.56-7.644 8.88-14.41 12.248-21.225-3.405 4.224-7.714 8.886-9.875 15.32-.145-.303-.293-.605-.533-.417-3.053 4.74-6.005 9.22-8.482 13.649 2.68-6.45 6.727-12.2 10.333-18.772-2.825 2.36-4.094 6.292-7.106 9.79-.445.328.103.668.514 1.007-2.7 2.009-4.225 4.995-5.971 7.588-13.169 19.845-22.637 38.733-37.043 62.696-.594.995-1.313 1.85-2.052 3.282-.571 1.119-1.966 1.835-2.632 2.924-1.688 2.777-2.037 6.775-5.274 7.716-.33.892-1.763 2.597-1.403 1.571 1.387-4.033 4.115-6.817 5.68-9.61 6.57-11.712 13.713-22.384 19.244-32.687-6.506 7.766-10.287 18.01-15.569 25.544-2.456 3.491-4.975 8.14-7.435 11.2-11.158 13.964-18.507 31.485-32.16 44.412-.088-1.37.515-1.959.595-2.528zm103.843-190.395c-.242.39-1.372-1.078-.586-1.171.122.235.016.423.208.672 1.135-.33-.518-1.227.296-1.626.326 1.442.423-.494 1.222-.809-.165 1.326-.778 2.116-1.14 2.934zm-8.433 17.206c-.716-.08-.594.939-1.526 1.436-.366-1.425.66-1.895.222-2.98.914-.2 1.176 1.176 1.304 1.544zm-2.715 3.295c-.114.191-.278.083-.442-.04.086.618 1.3 1.852.08 1.762-.64-.575.534-.992-.71-1.625.29-.432.638-.514 1.072-.097zm.38-.741c.735-.076.673 2.174-.11 1.987-.785-.74.275-1.302.11-1.987zm-1.983 4l-.77-.717c.39-.296.68-1.23 1.26-.308-.368.32-.08.708-.49 1.026zm-4.17 4.842c-.26.145-.64-.296-.882-.061-.328-.668.92-1.23.486-1.909 1.076.002.746 1.54-.126 1.545l.522.425zm1.262-.91c.546-.181 1.953-1.873 1.08-2.9.904.241.904.034 1.236-.803.872.543.154.927.684 1.436-1.798.303-1.041 3.545-3 2.267zm-10.079 14.55c-.38.968-1.339-.78-2-1.132.487-.602 1.861.59 2 1.132zm-4.738 9.03c-.192-.636.058-1.27.596-1.9.568.672-.108 1.882-.596 1.9zm12.38-14.768c-.136-.271-.278-.544-.692-.83 1.63.596.831-3.843 3-1.44-2.104-.417-.643 2.477-2.308 2.27zm-13.693 17.581c-.248-.79.568-1.796.566-3 .144.532.128 1.06.732 1.595-.92.504-.334 1.407-1.298 1.405zm12.458-14.46c-.282.043-.56.091-.788.38-.856-.469-.194-.857-.726-1.31.548-.147 1.388.271 1.514.93zm.361-2.033c.604.46-.494.82-.6 1.238-.436-.52-.3-1.006-.99-1.542.738-.496 1.214.374 1.59.304zm-21.773 31.482c-.832-.973.984-2.012.998-3 1.054 1.453-.636 1.502-.998 3zm3.838 3.004c-.138-.3-.486-.595-.996-.883l.91-1.117c1.272 1.012-.236.965.086 2zM787.107 609.63c.332-2.699 3.697-5.482 6-10-.635 2.41-4.165 6.842-6 10zm13.082-5.163c.782-2.808 2.374-2.52 0 0zm4.35-6.818c.546-2.63 2.306-2.702 0 0zm49.26-76.174c1.149.929-1.045 1.96-1.3 2.931-1.275.53 1.63-2.17 1.3-2.931zm-5.622 14.289c-.572-.953 1.838-2.046 1.268-3 1.282.073-.996 2.835-1.268 3zm.074 1.479c-.066.22-.248.13-.432.026-1.468 3.576-1.598-1.004.432-.026zm-12.04 19.8c.463-2.632 2.21-2.703 0 0zm2.435-3.466c.796-1.725 1.665-5.597 4-6-1.434 1.928-2.976 4.747-4 6zm-19.325 31.117c-.898 2.054.918-.69 1.71-1.909 1.058-1.617 2.346-3.462 1.984-4.35-1.155 1.62-2.811 4.34-3.694 6.26z" fill="url(#a)" transform="rotate(36 1350.761 135.858)"/><path d="M546.74 969.109c-3.009 1.302-6.413 2.465-10.073 3.44-3.672.94-7.593 1.727-11.614 2.381-8.028 1.373-16.523 1.859-24.179 2.163-7.805.176-14.73.03-19.896-.363-.943-4.169 1.549-3.984 3.668-4.275 2.092-.314 3.788-1.1 1.348-7.126 4.094 2.622 4.572 13.897 11.912 9.043-.105-7.651-3.952-6.267-7.275-6.126 3.23-6.818 7.6-4.163 12.058-1.69 4.098 2.294 8.39 4.487 11.768-.67.227-.466.504-.971.89-1.552-.288.587-.587 1.09-.89 1.553-2.25 4.623 2.96 3.897 11.3 1.497 9.208-2.547 22.034-7.154 33.016-8.217-1.618 4.06-6.013 7.347-12.033 9.942m-250.29-102.43c-1.494 1.548-6.879 1.422-11.168-4.947-2.485 2.167-5.64 2.337-9.243 1.125 1.125-2.567 2.989-2.729 3.856-6.044-1.605-1.073-2.298.76-2.965 2.752-5.188-10.57 10.537-5.67 8.352 2.167 10.481.26 12.666 3.394 11.168 4.948m-30.648 8.39c3.936-6.496 16.499.643 18 4.7-6.552 4.738-8.88-1.736-18-4.7M1608.34 453.59c-1.178-10.732-2.973-20.753-5.357-31.02a196.423 196.423 0 0 0-1.896-7.522 280.206 280.206 0 0 0-2.114-7.41c-1.482-4.892-3.12-10.001-4.891-14.693a284.408 284.408 0 0 0-5.766-14.32c-2.072-4.831-4.286-9.295-6.655-13.953-4.732-9.33-10.085-18.146-16.063-27.032-12.013-17.46-26.528-34.243-44.402-49.856-5.398-4.719-11.115-9.112-16.922-13.27l-2.188-1.546-2.003-1.351-3.972-2.58a228.144 228.144 0 0 0-8.078-4.897c-10.784-6.154-21.832-11.13-32.738-14.926-21.872-7.638-43.264-10.799-63.047-11.175-19.822-.377-38.094 1.992-54.703 5.399-16.626 3.415-31.626 7.864-45.253 11.856-3.451 1.066-6.936 2.248-10.27 3.586-3.239 1.37-6.481 2.837-9.622 4.442-6.15 3.283-12.166 6.968-18.024 10.926-11.7 7.807-22.848 17.192-33.25 26.493-20.87 18.748-38.824 38.238-54.736 50.117-1.794 1.325-3.792-5.376-7.332-3.533-8.995 4.884-18.553 16.248-27.302 27.962-8.798 11.91-16.781 23.858-23.63 29.865-8.036-1.356-12.049 7.577-15.768 14.463-3.768 6.837-7.215 11.862-15.033 2.658-3.084 6.081-6.35 11.652-9.762 16.77-3.409 5.153-6.945 10.026-10.599 14.418-3.65 4.432-7.42 8.393-11.239 12.172a158.768 158.768 0 0 1-11.616 10.597 169.545 169.545 0 0 1-5.907 4.662c-1.971 1.503-3.925 3.061-5.89 4.501a236.58 236.58 0 0 1-11.729 8.13c-3.895 2.476-7.652 5.156-11.37 7.523-3.687 2.382-7.297 4.718-10.797 6.98.622 8.801 8.017 15.184 4.996 16.652-4.42 3.394-7.079-10.671-11.607-7.246.464 8.162 7.584 11.308 4.217 13.26-1.929-3.708-3.897-7.027-6.019-9.038 1.3 5.883 4.836 7.825 3.22 9.934-1.409.433-.787 3.215-1.705 4.19-2.606-1.404-4.411-12.629-7.217-12.3 2.32 7.22.532 6.58-1.397 6.049-1.92-.517-4.021-1.002-2.194 6.268 2.309-1.036 4.406 1.236 6.38 5.056-9.106 2.772-18.231 11.058-26.378 19.288-2.066 2.012-4.099 3.974-6.111 5.785-1.99 1.858-3.91 3.665-5.85 5.168-3.867 3.033-7.703 5.072-11.658 5.368.682 7.988-1.624 10.49-4.538 12.476-1.452.994-3.05 1.86-4.458 3.211-1.405 1.364-2.611 3.305-3.272 6.28-5.534-12.87-8.2-7.14-8.244-3.456 1.7-.472 3.43-.672 5.8 4.786-.72 7.001-4.75 7.81-9.307 7.647-4.543-.227-9.602-1.664-12.018.405-2.677 2.316.86 18.489-3.805 18.537-5.483.05-8.877 3.431-11.726 7.618-2.845 4.177-5.212 9.438-8.816 13.637-5.02 5.82-10.745 11.667-16.818 17.206-6.183 5.693-12.69 11.121-19.655 16.629-13.816 10.895-28.914 21.568-44.05 32.072l-11.269 7.84-11.07 7.79c-7.42 5.158-14.359 10.336-21.153 15.466-3.374 2.569-6.515 5.184-9.668 7.76a174.155 174.155 0 0 0-8.962 7.799c-5.557 5.3-10.707 10.493-14.756 16.018-5.3-1.977-10.668-1.455-15.875.55-5.212 1.994-10.375 5.259-15.153 8.922-4.811 3.575-9.313 7.39-13.135 10.395-3.847 2.944-7.044 5.002-9.175 5.097-6.244.26-3.779 8.593-13.999 13.179-17.831 7.91-30.953 15.229-46.05-1.95-3.338 5.557-8.009 9.032-13.245 11.194-5.222 2.22-10.962 3.26-16.504 4.029-2.765.403-5.475.772-8.043 1.236-2.576.43-5.02.933-7.24 1.679-4.443 1.47-7.994 3.918-10.105 8.21 3.55 1.18 7.61-.045 10.344 4.613a382.323 382.323 0 0 1-12.26 2.948l-3.134-13.54c-4.915 1.888-9.839 2.962-14.707 3.569-4.867.625-9.624 1.025-14.282 1.43-4.65.43-9.14 1.137-13.492 2.447-4.355 1.301-8.542 3.337-12.588 6.635 2.026.518 5.1 4.967 2.806 6.579-5.508-.231-13.442 5.824-15.233-4.825 4.007-4.388 9.974 9.261 10.66-1.497-4.356-2.134-7.902-6.228-13.344-5.199.354 5.199 2.287 12.646-.04 14.025-11.656-2.295-22.184-.959-31.762 1.371-4.791 1.15-9.386 2.467-13.672 3.74-4.327 1.2-8.4 2.268-12.136 2.89.533-2.151 4.276-13.535-.387-13.894-9.041 12.174-23.294 8.974-36.754 4.866-13.568-4.048-26.115-8.606-35.679 2.202-.36-9.1-4.528-11.848-9.417-11.126-4.874.751-10.529 5.274-13.455 11.176 1.384-7.482-.052-11.687-3.004-14.063-2.954-2.37-7.47-2.906-12.4-3.298-4.414.035.908 9.88-6.404 9.218-2.601-2.534-5.211-4.77-7.86-6.698-2.647-1.926-5.33-3.507-8.078-4.911-5.492-2.99-11.324-4.921-17.402-7.048-6.064-2.145-12.56-4.079-19.232-7.029-6.756-2.77-13.67-6.572-20.766-11.667-6.126 5.884-.773 14.077-6.102 12.487-6.52 1.07-12.775-2.845-17.858-7.697-5.057-4.943-9.176-10.434-12.14-12.764 2.947 2.433-4.006 4.786-1.787-1.118 5.041-5.145 6.499-1.856 8.61 1.442 2.062 3.323 4.698 6.87 11.153 2.117-2.649-1.734-7.277-7.353-12.036-11.867-4.756-4.553-9.955-7.673-14.569-4.3-2.946 5.016.587 4.222 3.472 3.786 2.875-.413 5.102-.378-.209 6.571-3.043-.53-5.338-1.32-7.258-2.42-1.91-1.12-3.493-2.49-5.202-4.096-1.709-1.608-3.544-3.451-5.963-5.535-2.392-2.125-5.305-4.573-9.288-7.283 3.39-3.326 6.396-3.501 10.077-9.823-5.517 3.777-10.279 4.025-15.504 3.46-5.25-.551-11.188-1.573-19.434-.403 2.039 4.092 4.473 7.712 7.039 11.174a93.715 93.715 0 0 0 4.012 4.986 109.926 109.926 0 0 0 4.367 4.533c2.998 2.913 6.067 5.748 9.328 8.346 3.269 2.59 6.615 5.103 9.998 7.63 13.738 9.932 28.057 19.487 42.502 35.13-19.83-10.184-34.633-18.875-47.687-28.187a253.11 253.11 0 0 1-9.39-7.272c-3.064-2.457-5.914-5.19-8.798-7.947-5.79-5.476-11.123-11.846-16.513-19.034-2.925 2.874-6.123 7.767-8.509 6.426 3.746-6.554 1.435-11.643-2.782-15.668-4.206-4.03-10.198-7.29-14.07-9.552 9.04 10.753-1.359 1.218-6.564 3.326 2.899.983 3.627 6.385 3.463 10.836-.16 4.103-1.132 7.349-2.189 5.306 2.22 5.615 7.806 9.814 13.108 13.865 5.523 4.196 11.013 7.866 12.656 12.964.803 2.35-7.227 6.585-4.634 9.668-.209-.281 6.574-8.122 8.322-6.716 4.591 3.705 2.612 13.486 7.092 18.39 4.466 4.657 14.89 5.664 19.846 9.374 24.149 18.161 51.39 37.904 82.544 54.38 31.296 16.772 65.198 29.687 97.023 36.517 21.37 4.653 42.569 6.952 63.018 7.957 20.471 1.006 40.212.736 59.162.26 18.959-.484 37.153-1.147 54.755-1.077 17.62.167 35.068.831 52.692 3.128a232.04 232.04 0 0 0-21.984 1.64c-7.527.757-15.168 2.034-23.031 3.183-15.562 2.513-32.277 5.452-49.903 7.686-17.62 2.219-36.228 3.659-55.26 3.004-19.004-.646-38.447-3.411-57.074-9.369-4.667 11.462-9.846-2.968-13.122 9.197 19.737 2.074 44.246 3.823 67.555 5.09 23.366 1.344 45.576 2.353 62.239 4.881 2.493 9.233-10.442-1.44-8.047 7.77 5.283 2.068 16.358-7.95 16.076 5.387-36.53 2.137-79.09.947-123.188-4.475-22.023-2.69-44.385-6.428-66.273-10.975-5.427-1.044-10.936-2.363-16.311-3.537-5.37-1.145-10.753-2.48-16.052-3.764l-7.891-1.897c-2.646-.69-5.269-1.377-7.871-2.056-5.196-1.377-10.36-2.634-15.348-3.992 6.785 5.054 14.08 9.389 21.733 13.364 7.564 3.744 15.662 7.323 24.116 10.357 8.542 3.212 17.448 5.98 27.08 8.93 4.769 1.367 9.695 2.78 14.802 4.246 5.146 1.494 10.307 2.808 15.791 4.34 23.342 6.358 48.34 10.114 72.927 11.834 24.57 1.706 48.726 1.432 71.304.344 2.821-.14 5.635-.281 8.435-.422l8.213-.522c5.496-.327 10.79-.729 16.017-1.121 10.338-.811 20.403-1.601 30.062-2.356 19.323-1.425 37.084-2.778 52.665-2.465 4.363-5.057 18.89-10.357 34.01-14.088 7.58-1.82 15.291-3.34 22.093-3.892 6.772-.64 12.587-.46 16.307 1.047 22.012-7.499 45.034-16.672 68.11-26.933 23.085-10.25 46.22-21.584 68.702-33.155 11.385-5.793 22.008-11.558 32.704-17.05 10.066-5.405 20.382-10.644 29.513-15.274 2.349-1.157 4.68-2.303 6.99-3.439l6.76-3.237c4.37-2.067 8.7-4.029 12.986-5.867 2.103-.879 4.182-1.745 6.234-2.6 2.014-.816 4.02-1.6 6.013-2.348 3.953-1.483 8.012-2.904 11.74-4.042-.619 1.38-2.81 2-.983 4.845 6.093-2.2 12.136-4.905 18.26-8.232 5.844-3.17 11.461-6.805 16.624-10.845 4.845-3.83 9.434-8.217 12.978-12.718 3.431-4.416 6.187-9.224 7.884-14.27-6.567-5.992-8.944 8.614-15.65 2.196 2.233-3.024 4.594-6.41 7.871-9.143 1.686-1.406 3.402-2.48 5.492-3.301 2.083-.816 4.488-1.336 7.305-1.429 2.392 3.748 1.236 4.954 4.641 9.416l3.933-2.872c1.233-.873 2.465-1.741 3.692-2.61l7.345-5.08 6.872-4.513c2.272-1.48 4.59-3.004 6.63-4.226l6.287-3.89c1.075-.686 2.033-1.234 2.99-1.793l2.88-1.7 2.863-1.72c.96-.594 1.903-1.168 2.748-1.627 1.74-.99 3.47-2.002 5.185-3.046 1.774-1.125 3.287-1.945 4.83-2.873 1.539-.914 3.072-1.91 4.57-2.88 2.925-1.676 5.759-3.577 8.57-5.692 2.993-1.888 5.898-4.066 8.815-6.49 3.087-2.2 6.08-4.783 9.162-7.601 8.899-7.727 18.16-16.832 28.173-27.294 2.54-2.545 5.14-5.14 7.738-7.92l3.942-4.223 4.09-4.19 17.106-18.124c11.944-12.47 24.837-26.337 39-40.634 7.039-7.399 14.434-14.53 22.07-22.34l11.718-11.492c3.98-3.924 8.037-7.945 12.173-11.826 3.06-2.919 6.23-5.885 9.43-8.82l4.808-4.367 4.772-4.106c6.287-5.367 12.412-10.4 17.227-14.308 7.976-6.452 14.926-9.979 21.703-13.164 6.781-3.167 13.35-6.028 21.106-10.927 9.903-6.218 21.255-15.466 35.114-23.205 6.864-3.813 14.396-7.31 22.273-9.626 4.023-1.24 7.905-2.07 12.088-2.726 4.03-.474 8.298-.801 12.402-.52 7.11.3 14.932 2.469 22.995 6.044 8.072 3.565 16.302 8.626 24.093 14.75 7.817 6.095 15.312 13.16 22.276 20.312 1.772 1.764 3.395 3.6 5.119 5.34 1.694 1.76 3.457 3.443 5.044 5.159a118.47 118.47 0 0 0 4.955 4.86 90.273 90.273 0 0 0 2.525 2.235 77.33 77.33 0 0 0 2.446 2.123c3.653 3.011 7.316 5.782 10.973 8.258 3.54 2.506 7.11 4.72 10.715 6.59 7.21 3.746 14.57 6.108 22.08 6.859 7.509.759 15.17-.098 22.838-2.569 7.667-2.46 15.332-6.54 22.744-11.926 7.368-5.348 14.266-11.889 20.795-19.136 3.29-3.651 6.323-7.306 9.268-11.043 2.945-3.735 5.77-7.52 8.488-11.234 2.755-3.779 5.372-7.37 7.777-10.667 2.475-3.352 4.872-6.513 7.22-9.346 4.7-5.665 9.22-10.031 13.858-11.952 2.98-22.327 3.103-44.66.723-65.52" fill="url(#b)" transform="rotate(20 1832.187 67.867)"/><path d="M1133 100.818c.023.05-.41.217-.453.175-.431-.431-.62-.954-.95-1.421-.328-.468-.808-.875-1.058-1.372-.25-.497-.351-1.052-.537-1.574-.186-.522-.279-1.08-.414-1.623-.132-.544-.311-1.07-.416-1.627-.12-.621-.053-1.319-.205-1.926-.15-.61-.26-1.237-.511-1.805-.252-.567-1.173-.84-1.592-1.333-.415-.489-.76-1.01-1.412-1.395-.65-.383-1.506-.673-1.974-1.135-.468-.461-.765-1.004-1.097-1.528-.328-.524-.517-1.116-.748-1.684-.235-.568.038-1.377-.145-1.97-.179-.588-.617-1.05-.755-1.658-.138-.608-.587-1.065-.704-1.684-.116-.618-.065-1.321-.178-1.945-.116-.622.023-1.373-.106-1.99-.13-.621-.49-1.122-.658-1.722-.168-.6.336-1.55.105-2.124-.231-.572-1.22-.741-1.53-1.269-.306-.528-.25-1.253-.652-1.732-.11-.13.698-.575.826-.456.426.397 1.312.543 1.787.918.477.373 1.347.532 1.839.903.49.372.095 1.218.571 1.596.478.376 1.795.315 2.238.719.444.402 0 1.264.372 1.702.412.488 1.544.613 1.896 1.136.355.52.413 1.189.713 1.736.297.55.095 1.34.341 1.912.246.571.847.976 1.04 1.575.195.61.132 1.339.378 1.923.247.584.346 1.236.593 1.82.247.583.965.955 1.164 1.56.197.61.352 1.233.443 1.884.08.573.592.964.638 1.55.046.59-.832 1.562-.808 2.153.025.591.773.884.793 1.478.022.59.157 1.136.183 1.723.023.59.234 1.101.273 1.683.04.58-.462 1.373-.39 1.937.07.565-.403 1.34-.29 1.886.112.545.377 1.034.54 1.56.166.524.612.944.85 1.444z" fill="#FE7E1F"/><path d="M1140.232 22.932c.04.024-.226.407-.278.4-.52-.063-.893-.34-1.354-.493-.463-.151-1.014-.186-1.418-.424-.404-.238-.718-.594-1.074-.897-.354-.302-.646-.682-.965-1.026-.322-.341-.653-.671-.943-1.048-.324-.423-.518-.995-.843-1.403-.33-.407-.633-.84-1.026-1.17-.39-.33-1.264-.114-1.783-.318-.514-.198-.958-.477-1.648-.502-.687-.023-1.527.097-2.073-.099-.544-.198-.976-.523-1.407-.843-.434-.32-.758-.75-1.116-1.145-.351-.402-.29-1.196-.592-1.635-.302-.428-.791-.688-1.044-1.162-.252-.475-.762-.72-.978-1.223-.218-.503-.297-1.12-.502-1.625-.2-.508-.18-1.197-.39-1.689-.208-.492-.594-.839-.823-1.31-.233-.474.148-1.42-.113-1.857-.26-.436-1.22-.34-1.542-.739-.326-.395-.317-1.036-.727-1.365-.112-.09.634-.637.762-.562.427.252 1.269.186 1.731.396.46.214 1.293.133 1.773.32.483.18.166 1.003.647 1.189.48.186 1.69-.238 2.127-.036.433.204.127 1.034.513 1.283.433.275 1.466.018 1.853.313.388.3.52.821.867 1.158.348.33.288 1.038.597 1.411.307.376.924.457 1.196.862.277.413.36 1.018.7 1.378.337.357.549.845.9 1.193.35.351 1.055.33 1.364.716.314.383.605.792.846 1.259.211.413.756.463.955.891.2.425-.272 1.615-.068 2.056.204.442.92.29 1.12.735.2.449.5.78.715 1.216.218.434.559.72.801 1.129.24.412.12 1.284.39 1.675.269.387.195 1.227.504 1.576.308.348.715.565 1.07.852.352.29.88.336 1.276.563z" fill="#FFBC48"/><path d="M1237.812 23.001c-.66.283-1.242.773-1.927.985-.687.213-1.34.52-2.046.675-.707.155-1.63-.27-2.353-.16-.723.11-1.653-.351-2.388-.275-.735.076-1.41.317-2.152.373-.741.055-1.442.226-2.185.273-.746.046-1.228.823-1.972.874-.743.05-1.814-.817-2.55-.751-.736.066-1.305.602-2.031.696-.823.108-1.623.281-2.41.493-.786.213-1.38.95-2.15 1.212-.769.262-1.596.361-2.366.619-.77.256-1.656.19-2.446.386-.779.192-1.404.81-2.162 1.053-.76.244-1.683.027-2.423.323s-1.57.339-2.293.69c-.72.35-1.15 1.502-1.852 1.91-.632.368-1.571-.112-2.178.325-.605.436-.878 1.789-1.472 2.267-.593.476-1.523.028-2.113.514-.588.486-1.032 1.377-1.63 1.843-.597.467-1.039 1.37-1.655 1.787-.186.126.117.983.31.878.712-.39 1.591-.296 2.337-.585.745-.29 1.24-1.305 2.012-1.517.772-.212 1.81.343 2.603.188.792-.156 1.518-.505 2.323-.624.806-.12 1.707.04 2.518-.066.81-.105 1.678-.046 2.488-.158.809-.113 1.497-.575 2.296-.716.799-.141 1.49-.59 2.272-.778.791-.193 1.753.083 2.529-.166.773-.247 1.565-.452 2.303-.798.738-.349 1.488-.674 2.172-1.165.684-.492 1.22-1.379 1.83-2.06.613-.683 1.336-1.05 2.03-1.496.697-.448 1.202-1.404 1.96-1.683.76-.28 1.568-.425 2.363-.607.793-.183 1.664-.156 2.471-.313.722-.142 1.42-.35 2.127-.525.708-.174 1.433-.308 2.124-.532.689-.225 1.408-.375 2.074-.668.664-.29 1.24-.813 1.875-1.188.63-.375 1.318-.612 1.913-1.087.059-.048-.11-.474-.176-.446" fill="#61EFFD"/><path d="M1143.62 150.985c-.052.095-.645-.278-.62-.392.26-1.122.852-2.034 1.251-3.068.395-1.042.612-2.202 1.144-3.157.532-.953 1.248-1.783 1.879-2.667.634-.885 1.39-1.681 2.09-2.517.693-.84 1.375-1.688 2.124-2.484.847-.888 1.929-1.591 2.752-2.48.823-.894 1.687-1.754 2.387-2.735.705-.975.53-2.62 1.023-3.774.489-1.146 1.106-2.193 1.312-3.58.203-1.382.168-2.974.648-4.16.48-1.185 1.167-2.22 1.849-3.246.678-1.033 1.54-1.918 2.342-2.845.818-.918 2.28-1.276 3.157-2.128.862-.847 1.44-1.947 2.38-2.725.938-.776 1.49-1.905 2.481-2.632.987-.73 2.169-1.271 3.166-1.983 1.002-.706 2.312-1.11 3.29-1.829.978-.716 1.712-1.672 2.656-2.418.947-.75 2.72-.668 3.61-1.451.894-.788.851-2.52 1.672-3.39.818-.87 2.068-1.292 2.771-2.278.191-.27 1.165.733.997 1.023-.553.968-.545 2.492-1.032 3.507-.495 1.012-.472 2.524-.921 3.565-.444 1.043-2 1.012-2.447 2.057-.448 1.039.15 3.062-.334 4.047-.49.979-2.047.963-2.609 1.881-.622 1.02-.346 2.858-1.005 3.822-.667.963-1.713 1.583-2.44 2.492-.721.911-2.068 1.268-2.857 2.127-.79.854-1.094 2.132-1.934 2.944-.856.823-2.027 1.384-2.79 2.294-.762.908-1.741 1.641-2.484 2.57-.748.925-.892 2.338-1.699 3.208-.8.88-1.643 1.727-2.576 2.501-.827.682-1.067 1.828-1.915 2.495-.843.669-2.905.401-3.767 1.074-.864.672-.783 2.058-1.652 2.726-.874.665-1.557 1.473-2.408 2.16-.848.692-1.46 1.554-2.266 2.281-.81.722-2.34.939-3.112 1.7-.768.761-2.24 1.043-2.945 1.86-.701.816-1.202 1.773-1.809 2.655-.612.88-.843 2.009-1.359 2.95z" fill="#535FD7"/></g></svg>