<svg width="728" height="458" xmlns="http://www.w3.org/2000/svg"><defs><linearGradient x1="93.73%" y1="11.55%" x2="20.77%" y2="84.5%" id="a"><stop stop-color="#FFBC48" offset="0%"/><stop stop-color="#FE7E1F" stop-opacity=".785" offset="31.81%"/><stop stop-color="#FE7E1F" stop-opacity="0" offset="100%"/></linearGradient></defs><path d="M177.77 24.36c.043.47-.302.667-.216 1.166-.643-.64-.746-.467-1.422.062-.255-1.31 1.016-.35 1.638-1.227zm.397 1.009c.658.058 1.402-2.051 2.317-.53-1.05.581-1.48.785-1.512 1.857-.35-.237-.609-.701-1.263-.183.128-.482.466-.81.386-1.44.27-.038.198.251.072.296zm-7.411 3.9c1.369 1.327-1.118.671-1.752 1.334.019-.328.41-.417.07-.971.609.074 2 .765 1.682-.363zM104.55 95.896c1.169-2.764 3.996-3.013 5.872-4.806-.334 1.648-4.48 2.914-5.872 4.806zm107.825-87.99c.338-.009.656.007.647.574 1.598-.145 1.857-1.535 3.327-1.765-.203-.75-.488-1.372-1.068-1.54-.348.976-1.01 2.462-2.032 1.279.06.608-.004 1.11-.333 1.374-.057-.324-.542-.34-.541.078zm3.835-.9c1.222-.011.492-2.465-.165-1.379-.081-.419-.18-.809-.652-.618.05 1.023.773.975.817 1.997zm-13.117 3.443c-.642-.33-2.355.07-2.115 1.14.44-.582 2.25-.105 2.115-1.14zm-3.571 2.162c-.306 1.111-1.92 1.202-2.717 1.953-.821-1.025 1.562-1.665 2.717-1.953zm3.957 1.393c.314-1.669 1.914-2.212 3.373-2.709 1.466-.464 2.789-.92 2.549-2.551-1.173.808-.974.68-2.251.353.561 2.094-.94.577-1.094 1.938-.365.067-.363-.55-.677-.575-.807.69-.536 1.46-2.086 1.106.003 1.713-1.84.693-2.762 1.947l.14.68c.172-.016.336-.014.345.286.697-.45.735-1.454 1.646-1.731.138.674.836.286.817 1.256zm-11.938 4.733c.317.973.99 1.158 1.452 1.794l1.338-.196c-.264-1 .624-1.134 1.193-1.513.325.735.949 1.242.617 1.915.248-1.09.775-2.35-.115-2.991.746.583.51-.433.879-.798-.426-.242-3.258.454-1.151.837-2.057-.338-2.45 1.122-4.213.952zm-151.55 99.515c1.217-.565 1.073-.422 2.056-.726.117.488-1.717 1.91-2.055.726zM156.27 60.257c-.32.408-.811.695-1.78 1.138-.104-.909 2.738-2.02 3.097-1.749l-1.317.61zM140.174 74.29c-2.536.918-3.91 2.437-6.348 3.42 1.172-1.372 4.334-4.009 6.348-3.42zm-13.18 7.694c.516-.248 2.5-.827 2.74-2.327-.886.927-5.357 3.555-2.74 2.327zM11.13 136.057c-2.447.295-7.182 3.644-10.636 3.447 3.734-1.54 5.803-2.468 9.583-4.44-.35-.665-1.069.352-1.57.377 11.511-6.164 19.076-9.752 28.56-14.932.626-.598-.1-1.221.045-1.565l4.778-2.625c.58 1.654 1.494 1.134 2.28 1.452.736-.13-.933-1.31-.196-1.438-.392-.631-.925-.323-1.466.032 5.814-4.096 14.874-9.157 23.327-14.395-.183-.672 1.428-.582.606-1.526 4.471.17 6.283-3.71 10.108-5.069-1.024-.674.903-.329 1.046-1.782.561-.34.398.065.56.462 12.477-7.788 25.683-15.74 33.76-22.168 2.092-.443 4.096-1.433 6.116-3.643 4.016-2.1 8.71-3.95 11.295-8.047.338.477.103.661-.157.832 2.04-.526 5.135-2.214 7.159-3.851.493-.286-.662-.633-.722-1.532.394-.407 1.691-.333 1.471-1.066 1.526.533-1.302.67-.348 1.663 1.862.003 3.09-1.57 4.178-3.087 7.49-2.091 14.77-8.342 20.117-10.717.097-1.018-1.285-.197-.605-.856.451-.043.356-.423.237-.82.97-.117.261.992 1.079 1.394 4.18-2.759 6.336-3.386 8.961-6.161-.15 1.391.43-.122.95.396.653-1.205.8-2.764 2.434-3.317.406 1.057-1.344 1.172-1.674 2.347 1.688-.61 3.293-1.13 4.813-2.02 1.537-.849 2.99-2.062 4.396-4.122-.656-1.302-1.383.924-1.79-.516 1.395-1.72 2.588-2.698 4.489-2.41.036.372-.443.356-.322.79-.087-.589 2.671-1.264 2.164-3.043 1.49.614 2.36-.245 2.13-2.33.804.24 1.852-.084 2.39.759.215-.372-.263-.777.52-1.194-1.376-1.225-1.993-.505-4.027.384-.317.756.31.552.433 1.637-1.18.043-.526-1.13-1.722-1.288-1.913.894-1.67 1.932-3.738 2.448-.138-2.502 2.44-2.388 3.82-3.174.241-.7 1.445-2.057 1.377-2.126.202-.795.64.195.518.913 2.327-1.09 1.99-2.637 2.031-4.055.852.168 1.124.79 1.018 1.85 1.93-1.394 5.534-1.257 5.253-5.064.321.153.444.698.946.474.096-1.76 2.225-.13 2.276-2.56 1.334 1.203 2.86-.78 3.953-1.472l.312 1.665c1.557-.656 2.675-1.71 4.07-2.472-1.144-1.408-2.437 1.312-3.984 1.42 1.81-1.77 3.67-3.056 5.626-4.238a146.837 146.837 0 0 1 6.26-3.534c-2.627 2.385-4.985 3.355-7.795 5.304.796.755 1.267-.957 1.991.027 1.354-1.781 5.048-3.918 6.35-3.344.683-1.975 3.256-2.41 5.581-4.079 1.07.556-.76.871-.715 1.452.205 1.11 1.245-1.174 1.205.54-1.316.243-1.21.6-1.776-.473.15 1.502-.756.341-.666 1.783-.586.23-.594-.417-.68-.943-.09.955-.072 2.082-1.258 1.517.313 1.944 2.718.351 2.788-.672 1.472.234 3.194-.042 4.475-1.143.63 0 .685.803.715 1.645.096-.968 2.4.767 1.856 1.897 1.894 1.111 2.226.47 3.754 1.414-.794.97.265.402-.453 1.735.289.944 1.166 1.053 1.75 1.567.282 1.474-.807 1.454-.957 2.453 1.17-.056-.295 1.566 1.412.915-.367.866-1.167 1.418.09 1.693.264 1.257-.98.816-.973 1.776.106 1.19.84 1.455.941 2.646.152.808-.436.772-.166 1.714a46.055 46.055 0 0 1-7.196 6.15c-2.569 1.913-5.287 3.52-8.06 4.92-8.643 4.406-17.431 9.548-26.24 14.22-2.672 1.363-5.533 2.934-8.441 4.319-2.89 1.517-5.82 2.906-8.579 4.295-9.476 4.708-16.602 8.833-24.115 13.26-7.508 4.44-15.39 9.155-26.173 15.75-8.657 5.289-18.61 12.741-28.053 17.524-4.324 2.181.384-.933 1.202-1.469 8.928-5.855 16.615-10.188 25.283-16.377-1.292.17-3.388 1.354-4.591 2.472 6.626-6.098 16.316-10.818 24.034-15.35.112 1.027-.692.632-1.48 1.452 3.467-.568 5.146-3.193 8.946-4.548-1.607-.944-2.327 1.261-4.58 1.742-.365.14-.779.544-1.032.109l.887-.416c6.731-5.078 14.606-8.554 20.78-12.99-4.99 2.131-10.984 4.224-15.913 8.891.015-.336.026-.673-.274-.62-4.921 2.752-9.63 5.322-13.897 8.07 5.394-4.437 11.667-7.613 17.936-11.723-3.602.757-6.569 3.633-10.87 5.308-.547.08-.223.638-.02 1.13-3.325.506-6.075 2.426-8.834 3.896-20.944 11.34-38.171 23.572-62.14 37.967-.992.6-2.029 1.017-3.353 1.935-1.03.72-2.597.697-3.697 1.346-2.794 1.66-4.98 5.026-8.279 4.336-.71.633-2.776 1.466-1.976.73 3.118-2.91 6.834-4.088 9.526-5.82 11.3-7.256 22.617-13.326 32.337-19.826-9.39 3.803-17.538 11.073-25.738 15.245-3.808 1.93-8.214 4.851-11.823 6.398-16.408 7.09-31.122 19.111-49.245 24.116.565-1.252 1.374-1.488 1.71-1.953zM192.203 16.701c-.396.23-.705-1.597.033-1.31-.003.265-.185.382-.132.691 1.157.241.118-1.326 1.024-1.297-.389 1.427.606-.237 1.46-.14-.77 1.093-1.68 1.503-2.385 2.056zM176.68 27.933c-.594-.406-.965.55-2.021.552.346-1.43 1.472-1.363 1.595-2.527.9.253.486 1.59.426 1.975zm-3.943 1.635c-.19.116-.285-.057-.372-.243-.214.587.278 2.246-.756 1.594-.295-.809.936-.625.135-1.768.46-.246.805-.154.993.417zm.683-.476c.684.278-.427 2.235-1.03 1.703-.346-1.022.854-1.021 1.03-1.703zm-3.63 2.602l-.342-.996c.483-.078 1.178-.766 1.257.32-.475.11-.403.588-.914.676zm-5.955 2.317c-.297.005-.426-.563-.75-.469.024-.743 1.39-.654 1.326-1.457.949.507-.065 1.71-.837 1.305l.261.62zm1.542-.212c.568.097 2.603-.736 2.316-2.053.684.637.781.455 1.467-.129.515.89-.299.89-.07 1.59-1.73-.578-2.583 2.64-3.713.592zm-15.73 8.116c-.79.676-.816-1.317-1.234-1.939.712-.303 1.366 1.395 1.234 1.939zm-8.422 5.748c.129-.651.647-1.094 1.418-1.398.186.86-.979 1.611-1.418 1.398zm17.863-7.227c.008-.303.01-.61-.221-1.058 1.159 1.292 2.538-3.003 3.325.137-1.662-1.356-1.73 1.885-3.104.92zm-20.344 9.095c.152-.814 1.345-1.32 1.909-2.383-.123.537-.385.996-.103 1.752-1.048.012-.955 1.085-1.806.63zm17.79-6.92c-.27-.093-.538-.182-.875-.034-.536-.815.23-.847-.026-1.498.553.128 1.098.892.9 1.532zm1.273-1.625c.317.69-.822.492-1.111.812-.141-.664.207-1.03-.15-1.826.884-.092.896.9 1.26 1.014zM123.8 58.561c-.278-1.25 1.813-1.314 2.29-2.18.248 1.778-1.267 1.027-2.29 2.18zm1.978 4.454c.02-.33-.15-.753-.465-1.247l1.328-.56c.648 1.492-.662.743-.863 1.807zm-99.775 61.991c1.56-2.227 5.837-3.105 9.992-6.012-1.692 1.83-6.89 4.085-9.992 6.012zM126.276 78.48c.578 1.359-1.843 1.24-2.524 1.978-1.375-.131 2.458-1.15 2.524-1.978zm-11.672 9.976c-.059-1.109 2.583-.943 2.528-2.053 1.097.667-2.211 2.036-2.528 2.053zm-.63 1.341c-1.333-1.817-3.368 2.288-.393-.18.113.178.232.343.393.18zM97.826 99.71c1.512-1.15 4.097-4.16 6.348-3.42-2.171 1.03-4.856 2.794-6.348 3.42zm-31.673 18.403c1.681-1.28 4.42-2.905 6.201-3.794-.098.955-2.101 1.98-3.795 2.91-1.27.704-4.163 2.275-2.406.884z" transform="translate(364 318)" fill="url(#a)" fill-rule="evenodd"/></svg>