<svg width="1440" height="324" xmlns="http://www.w3.org/2000/svg"><defs><linearGradient x1="50%" y1="0%" x2="50%" y2="70.462%" id="a"><stop stop-color="#535FD7" stop-opacity=".08" offset="0%"/><stop stop-color="#F9F9F9" stop-opacity="0" offset="100%"/></linearGradient><linearGradient x1="98.887%" y1="48.887%" x2="1.113%" y2="48.887%" id="b"><stop stop-color="#FFF" offset="0%"/><stop stop-color="#FFF" stop-opacity="0" offset="100%"/></linearGradient><linearGradient x1="50%" y1="0%" x2="50%" y2="100%" id="c"><stop stop-color="#FFBC48" offset="0%"/><stop stop-color="#FFBC48" stop-opacity=".48" offset="100%"/></linearGradient><linearGradient x1="50%" y1="0%" x2="50%" y2="100%" id="d"><stop stop-color="#FE7E1F" offset="0%"/><stop stop-color="#FE7E1F" stop-opacity="0" offset="100%"/></linearGradient><linearGradient x1="6.251%" y1="50%" x2="25.292%" y2="102.06%" id="e"><stop stop-color="#FE7E1F" stop-opacity=".11" offset="0%"/><stop stop-color="#FE7E1F" offset="100%"/></linearGradient></defs><g fill="none" fill-rule="evenodd"><path fill="url(#a)" d="M60 219h1440v439H60z" transform="translate(-60 -219)"/><path d="M561 351c22.708-59.794 128.225-106.128 316.55-139C717.696 119.333 612.179 73 561 73c-76.768 0-139 62.232-139 139s104.938 228.691 139 139z" fill="url(#b)" transform="translate(-60 -219)"/><path d="M175.832 318.348c18.707 110.547 305.856-85.055 139-139-166.855-53.946-62.232-139-139-139s-139 62.232-139 139c0 76.767 120.293 28.453 139 139z" fill="url(#b)" transform="rotate(-164 156.396 90.713)"/><g transform="translate(872 -221)"><path d="M508 528c185.316 72 210-94.02 210-210s-94.02-210-210-210-173.035 101-210 210 24.684 138 210 210z" fill="url(#c)"/><circle fill="url(#d)" cx="508" cy="318" r="120"/><path d="M699.233 420c185.316 72 210-94.02 210-210s-94.02-210-210-210-173.035 101-210 210 24.683 138 210 210z" fill="url(#e)"/><path d="M142.155 251.626c-.93.393-1.983.745-3.115 1.04a42.301 42.301 0 0 1-3.592.718c-2.483.415-5.11.562-7.478.654-2.413.053-4.555.009-6.153-.11-.292-1.26.48-1.203 1.135-1.291.646-.095 1.171-.333.416-2.153 1.267.792 1.414 4.198 3.684 2.732-.032-2.311-1.222-1.893-2.25-1.85 1-2.06 2.35-1.258 3.73-.511 1.267.693 2.594 1.355 3.64-.202.07-.141.155-.294.274-.47-.089.178-.181.33-.275.47-.696 1.396.915 1.177 3.495.452 2.847-.77 6.814-2.16 10.21-2.482-.5 1.226-1.859 2.22-3.72 3.003m-77.218-31.511c-.467.486-2.151.446-3.493-1.555-.777.68-1.763.735-2.89.354.351-.807.934-.858 1.205-1.9-.501-.336-.718.24-.927.865-1.622-3.32 3.296-1.78 2.612.681 3.278.082 3.962 1.066 3.493 1.555m-9.541 2.388c1.192-1.973 4.994.195 5.449 1.427-1.984 1.44-2.689-.527-5.449-1.427M469.855 92.526a80.53 80.53 0 0 0-2.239-11.893 86.453 86.453 0 0 0-.652-2.287c-.458-1.509-.963-3.086-1.51-4.533a87.754 87.754 0 0 0-1.78-4.42c-.639-1.49-1.322-2.868-2.053-4.305-1.46-2.879-3.113-5.6-4.958-8.341a82.028 82.028 0 0 0-13.704-15.385c-1.666-1.456-3.43-2.812-5.223-4.095l-.675-.477-.619-.417-1.225-.796a70.417 70.417 0 0 0-2.494-1.51 60.765 60.765 0 0 0-10.104-4.607c-6.75-2.356-13.353-3.332-19.459-3.448-6.118-.116-11.757.615-16.883 1.666-5.132 1.054-9.761 2.427-13.967 3.658a41.17 41.17 0 0 0-3.17 1.107c-1 .423-2 .876-2.97 1.37a62.726 62.726 0 0 0-5.563 3.372c-3.61 2.41-7.052 5.305-10.262 8.176-6.441 5.785-11.983 11.799-16.894 15.464-.553.41-1.17-1.659-2.263-1.09-2.776 1.507-5.726 5.014-8.426 8.629-2.716 3.675-5.18 7.362-7.293 9.215-2.48-.418-3.719 2.338-4.867 4.463-1.163 2.11-2.227 3.66-4.64.82a50.43 50.43 0 0 1-3.013 5.175c-1.052 1.59-2.143 3.094-3.27 4.45-1.127 1.367-2.29 2.59-3.47 3.755a48.999 48.999 0 0 1-3.585 3.27c-.605.5-1.213.98-1.823 1.439-.608.464-1.211.945-1.818 1.389a73.019 73.019 0 0 1-3.62 2.509c-1.202.764-2.362 1.59-3.51 2.321l-3.332 2.154c.192 2.716 2.475 4.685 1.542 5.138-1.364 1.048-2.184-3.293-3.582-2.235.143 2.518 2.34 3.489 1.302 4.091-.596-1.144-1.203-2.168-1.858-2.789.401 1.816 1.492 2.415.994 3.066-.435.133-.243.992-.526 1.293-.805-.434-1.362-3.897-2.228-3.796.716 2.228.164 2.03-.431 1.867-.593-.16-1.241-.31-.677 1.934.712-.32 1.36.381 1.969 1.56-2.81.855-5.627 3.412-8.141 5.952a67.274 67.274 0 0 1-1.887 1.785c-.614.573-1.207 1.13-1.805 1.595-1.194.936-2.378 1.565-3.598 1.656.21 2.465-.502 3.237-1.4 3.85-.449.307-.942.574-1.377.99-.434.422-.806 1.02-1.01 1.938-1.708-3.97-2.53-2.203-2.544-1.066.525-.145 1.058-.207 1.79 1.477-.222 2.16-1.466 2.41-2.873 2.36-1.402-.07-2.963-.514-3.709.125-.826.714.266 5.705-1.174 5.72-1.692.015-2.74 1.059-3.62 2.35-.877 1.29-1.608 2.913-2.72 4.209a62.767 62.767 0 0 1-5.19 5.31c-1.91 1.756-3.918 3.43-6.067 5.13-4.264 3.362-8.924 6.656-13.596 9.897l-3.478 2.42-3.417 2.403c-2.29 1.592-4.431 3.19-6.528 4.773-1.041.792-2.01 1.6-2.984 2.394a53.748 53.748 0 0 0-2.766 2.407c-1.715 1.635-3.305 3.238-4.554 4.942-1.636-.61-3.293-.448-4.9.17-1.609.616-3.202 1.623-4.677 2.753-1.485 1.104-2.874 2.28-4.054 3.208-1.187.909-2.174 1.544-2.832 1.573-1.927.08-1.166 2.651-4.32 4.066-5.504 2.441-9.554 4.7-14.213-.6-1.03 1.713-2.472 2.786-4.088 3.453-1.612.685-3.384 1.006-5.094 1.243-.854.125-1.69.238-2.482.382-.796.132-1.55.288-2.235.518-1.371.454-2.467 1.209-3.119 2.533 1.096.364 2.349-.014 3.193 1.424a118.02 118.02 0 0 1-3.784.91l-.967-4.179c-1.517.583-3.037.914-4.54 1.101-1.502.194-2.97.317-4.408.442-1.435.132-2.82.35-4.164.755a11 11 0 0 0-3.885 2.047c.625.16 1.574 1.533.866 2.03-1.7-.07-4.149 1.798-4.701-1.488 1.236-1.354 3.078 2.857 3.29-.462-1.345-.659-2.439-1.922-4.119-1.605.11 1.605.706 3.903-.012 4.328-3.597-.708-6.847-.296-9.803.423a81.722 81.722 0 0 0-4.22 1.154c-1.335.37-2.592.7-3.746.892.165-.664 1.32-4.176-.119-4.287-2.79 3.756-7.19 2.769-11.344 1.501-4.187-1.249-8.06-2.655-11.012.68-.11-2.808-1.397-3.656-2.906-3.434-1.504.232-3.25 1.628-4.153 3.45.427-2.31-.016-3.607-.927-4.34-.912-.731-2.305-.897-3.827-1.018-1.363.01.28 3.049-1.977 2.844a22.319 22.319 0 0 0-2.426-2.066 18.46 18.46 0 0 0-2.493-1.516c-1.695-.922-3.495-1.519-5.37-2.175-1.872-.662-3.877-1.258-5.937-2.169-2.085-.855-4.219-2.028-6.409-3.6-1.89 1.816-.238 4.344-1.883 3.853-2.013.33-3.943-.877-5.512-2.375-1.56-1.525-2.832-3.22-3.747-3.939.91.751-1.236 1.477-.551-.345 1.556-1.587 2.006-.572 2.657.445.637 1.026 1.45 2.12 3.443.654-.818-.535-2.246-2.27-3.715-3.662-1.468-1.405-3.073-2.368-4.497-1.327-.91 1.548.181 1.303 1.072 1.168.887-.127 1.574-.116-.065 2.028-.939-.164-1.647-.407-2.24-.747-.59-.345-1.078-.768-1.605-1.264-.528-.496-1.094-1.065-1.841-1.708a27.228 27.228 0 0 0-2.867-2.247c1.047-1.026 1.975-1.08 3.11-3.031-1.702 1.165-3.172 1.242-4.785 1.068-1.62-.17-3.452-.486-5.998-.125.63 1.263 1.38 2.38 2.173 3.448.398.53.81 1.044 1.238 1.539.437.48.887.946 1.348 1.398.925.9 1.873 1.774 2.88 2.576 1.008.799 2.04 1.574 3.085 2.354 4.24 3.065 8.66 6.013 13.118 10.84-6.12-3.142-10.69-5.824-14.718-8.697a78.118 78.118 0 0 1-2.899-2.244c-.945-.759-1.825-1.602-2.715-2.452-1.787-1.69-3.433-3.656-5.097-5.874-.902.887-1.89 2.397-2.626 1.983 1.156-2.022.443-3.593-.859-4.835-1.298-1.243-3.147-2.25-4.342-2.947 2.79 3.318-.42.375-2.026 1.026.895.303 1.12 1.97 1.069 3.344-.05 1.266-.35 2.267-.676 1.637.685 1.733 2.41 3.028 4.046 4.278 1.705 1.295 3.399 2.428 3.906 4 .248.726-2.23 2.033-1.43 2.984-.065-.087 2.029-2.506 2.568-2.072 1.417 1.143.806 4.161 2.19 5.675 1.377 1.436 4.595 1.747 6.125 2.892 7.453 5.604 15.86 11.697 25.476 16.78 9.659 5.176 20.123 9.161 29.945 11.269 6.596 1.436 13.138 2.145 19.45 2.455 6.318.31 12.41.227 18.26.08 5.851-.149 11.466-.353 16.9-.332 5.437.052 10.823.257 16.262.965a71.631 71.631 0 0 0-6.785.506c-2.323.234-4.682.628-7.108.983-4.804.775-9.962 1.682-15.402 2.371-5.439.685-11.182 1.13-17.056.927-5.865-.2-11.866-1.052-17.615-2.89-1.44 3.536-3.04-.917-4.05 2.837 6.091.64 13.656 1.18 20.85 1.571 7.212.415 14.067.726 19.21 1.506.769 2.85-3.223-.444-2.484 2.397 1.63.639 5.048-2.452 4.962 1.663-11.275.66-24.41.292-38.021-1.381a250.398 250.398 0 0 1-20.455-3.386c-1.675-.323-3.375-.73-5.034-1.092-1.657-.353-3.319-.765-4.954-1.161l-2.436-.586-2.43-.634c-1.603-.425-3.197-.813-4.736-1.232 2.094 1.56 4.346 2.897 6.708 4.124 2.334 1.155 4.834 2.26 7.443 3.196 2.636.99 5.385 1.845 8.358 2.755l4.568 1.31c1.588.461 3.181.867 4.874 1.34 7.204 1.961 14.92 3.12 22.508 3.651 7.584.527 15.039.442 22.008.107l2.603-.13 2.535-.162c1.696-.1 3.33-.225 4.943-.346l9.279-.727c5.963-.44 11.445-.857 16.254-.76 1.347-1.56 5.83-3.196 10.497-4.348 2.34-.56 4.72-1.03 6.819-1.2 2.09-.198 3.885-.143 5.033.323 6.794-2.314 13.9-5.145 21.021-8.311 7.125-3.164 14.266-6.66 21.204-10.231 3.514-1.788 6.793-3.567 10.094-5.262 3.107-1.667 6.29-3.284 9.109-4.713l2.157-1.06 2.087-1a119.468 119.468 0 0 1 4.008-1.81c.649-.271 1.29-.539 1.924-.802.621-.252 1.24-.494 1.856-.725a62.787 62.787 0 0 1 3.623-1.247c-.19.426-.867.617-.303 1.495a40.734 40.734 0 0 0 5.636-2.54 36.896 36.896 0 0 0 5.13-3.347c1.496-1.182 2.912-2.536 4.006-3.925 1.059-1.362 1.91-2.846 2.433-4.403-2.027-1.849-2.76 2.658-4.83.678.69-.933 1.418-1.978 2.43-2.821a5.992 5.992 0 0 1 1.694-1.02 6.724 6.724 0 0 1 2.255-.44c.738 1.156.381 1.529 1.432 2.906l1.214-.887 1.14-.805 2.267-1.568 2.12-1.393c.702-.456 1.417-.926 2.047-1.303l1.94-1.2c.332-.213.628-.382.923-.554l.889-.524.884-.531c.296-.184.587-.36.848-.502a62.645 62.645 0 0 0 1.6-.94c.548-.348 1.015-.6 1.49-.887.476-.282.95-.59 1.412-.888a25.479 25.479 0 0 0 2.645-1.757 25.853 25.853 0 0 0 2.72-2.003c.953-.679 1.877-1.476 2.828-2.345 2.746-2.385 5.605-5.194 8.695-8.423.784-.785 1.587-1.586 2.388-2.443l1.217-1.303 1.262-1.293 5.28-5.593c3.686-3.848 7.666-8.127 12.037-12.539 2.172-2.283 4.455-4.483 6.812-6.893l3.616-3.547c1.229-1.21 2.48-2.451 3.757-3.649.945-.9 1.923-1.816 2.91-2.722l1.485-1.347 1.473-1.267c1.94-1.656 3.83-3.21 5.317-4.415 2.461-1.991 4.606-3.08 6.698-4.062 2.093-.978 4.12-1.86 6.514-3.372 3.057-1.919 6.56-4.773 10.838-7.16 2.118-1.177 4.443-2.257 6.874-2.971a26.13 26.13 0 0 1 3.73-.841c1.245-.147 2.562-.248 3.829-.16 2.194.092 4.608.761 7.097 1.864 2.491 1.1 5.031 2.662 7.436 4.552 2.413 1.88 4.726 4.06 6.875 6.268.547.544 1.048 1.11 1.58 1.648.523.542 1.067 1.062 1.557 1.591a36.56 36.56 0 0 0 1.53 1.5c.257.237.517.467.779.69.25.226.5.445.754.655a45.177 45.177 0 0 0 3.387 2.548 28.36 28.36 0 0 0 3.307 2.034c2.226 1.156 4.497 1.884 6.815 2.116 2.318.234 4.682-.03 7.049-.793 2.366-.759 4.732-2.018 7.02-3.68 2.274-1.65 4.402-3.668 6.418-5.905a67.184 67.184 0 0 0 2.86-3.407c.909-1.153 1.781-2.32 2.62-3.467l2.4-3.291a66.434 66.434 0 0 1 2.228-2.884c1.451-1.749 2.846-3.096 4.278-3.689.92-6.89.958-13.78.223-20.218" fill="url(#c)"/></g></g></svg>